# xmcd
#
# Track frame offsets:
#	150
#	14188
#	20678
#	35889
#	54096
#	72687
#	93407
#	113280
#	135854
#	146458
#	172201
#	214082
#	235152
#	266533
#	292270
#
# Disc length: 4215 seconds
#
# Revision: 1
# Processed by: cddbd v1.5.1PL0 Copyright (c) Steve Scherf et al.
# Submitted via: CDmax 2.0
#
DISCID=e210750f
DTITLE=Hot Tuna - The Original Acoustic Hot Tuna - Live in Keene, NH - 12.01.
DTITLE=2000 - d1
DYEAR=2000
DGENRE=Blues
TTITLE0=The Colonial Intro
TTITLE1=Tuna Intro
TTITLE2=Trouble in Mind
TTITLE3=How Long Blues
TTITLE4=Home Of The Blues
TTITLE5=The Terrible Operation
TTITLE6=Been So Long
TTITLE7=Living in the Moment
TTITLE8=Embryonic Journey
TTITLE9=Sea Child
TTITLE10=99 Year Blues
TTITLE11=Third Week In The Chelsea
TTITLE12=Ice Age
TTITLE13=Uncle Sam Blues
TTITLE14=San Francisco Bay Blues
EXTD=12-01-00 \nThe Colonial Theatre, Keene, NH \nBilled as "Jack and Jorma, Th
EXTD=e Original Acoustic Hot Tuna" \n\nSet 1: \nTrouble in Mind \nHow Long Bl
EXTD=ues \nHome Of The Blues \nThe Terrible Operation \nBeen So Long \nLivin
EXTD=g in the Moment -> \nEmbryonic Journey \nSea Child \n99 Year Blues \nThi
EXTD=rd Week In The Chelsea \nIce Age \nUncle Sam Blues \nSan Francisco Bay B
EXTD=lues \n\nSet 2: \nHesitation Blues \nWalkin' Blues \nNobody Knows You Wh
EXTD=en You're Down And Out \nDeath Don't Have No Mercy \nDo Not Go Gentle \n
EXTD=I See The Light \nGood Shepherd \nWatch The North Wind Rise \nI Am The L
EXTD=ight Of This World \nAnother Man Done Gone -> \nParchman Farm \nA Life W
EXTD=ell Lived \nNever Happen No More \nNine Pound Hammer \n\nEncore: \nWate
EXTD=r Song
EXTT0=
EXTT1=
EXTT2=
EXTT3=
EXTT4=
EXTT5=
EXTT6=
EXTT7=
EXTT8=
EXTT9=
EXTT10=
EXTT11=
EXTT12=
EXTT13=
EXTT14=
PLAYORDER=
